<svg width="17" height="17" viewBox="0 0 17 17" fill="none" xmlns="http://www.w3.org/2000/svg">
<g clip-path="url(#clip0_1000_13023)">
<path d="M16.9813 8.57715C16.9813 4.1589 13.3995 0.577148 8.98129 0.577148C4.56304 0.577148 0.981293 4.1589 0.981293 8.57715C0.981293 12.5701 3.90679 15.8798 7.73129 16.48V10.8896H5.70004V8.57715H7.73129V6.81465C7.73129 4.80965 8.92567 3.70215 10.753 3.70215C11.6283 3.70215 12.5438 3.8584 12.5438 3.8584V5.82715H11.535C10.5412 5.82715 10.2313 6.44384 10.2313 7.07652V8.57715H12.45L12.0954 10.8896H10.2313V16.48C14.0558 15.8798 16.9813 12.5702 16.9813 8.57715Z" fill="#1877F2"/>
<path d="M12.0954 10.8896L12.45 8.57715H10.2313V7.07652C10.2313 6.44377 10.5412 5.82715 11.535 5.82715H12.5438V3.8584C12.5438 3.8584 11.6283 3.70215 10.753 3.70215C8.92567 3.70215 7.73129 4.80965 7.73129 6.81465V8.57715H5.70004V10.8896H7.73129V16.48C8.1448 16.5448 8.56273 16.5773 8.98129 16.5771C9.39985 16.5773 9.81778 16.5448 10.2313 16.48V10.8896H12.0954Z" fill="white"/>
</g>
<defs>
<clipPath id="clip0_1000_13023">
<rect width="16" height="16" fill="white" transform="translate(0.981293 0.577148)"/>
</clipPath>
</defs>
</svg>
