<svg width="17" height="17" viewBox="0 0 17 17" fill="none" xmlns="http://www.w3.org/2000/svg">
<g clip-path="url(#clip0_1000_13015)">
<path d="M13.1071 0.577148H4.60715C2.53608 0.577148 0.857147 2.25608 0.857147 4.32715V12.8271C0.857147 14.8982 2.53608 16.5771 4.60715 16.5771H13.1071C15.1782 16.5771 16.8571 14.8982 16.8571 12.8271V4.32715C16.8571 2.25608 15.1782 0.577148 13.1071 0.577148Z" fill="url(#paint0_radial_1000_13015)"/>
<path d="M13.1071 0.577148H4.60715C2.53608 0.577148 0.857147 2.25608 0.857147 4.32715V12.8271C0.857147 14.8982 2.53608 16.5771 4.60715 16.5771H13.1071C15.1782 16.5771 16.8571 14.8982 16.8571 12.8271V4.32715C16.8571 2.25608 15.1782 0.577148 13.1071 0.577148Z" fill="url(#paint1_radial_1000_13015)"/>
<path d="M8.85771 2.32715C7.16033 2.32715 6.94727 2.33459 6.28065 2.3649C5.61527 2.3954 5.16108 2.50071 4.76371 2.65527C4.35258 2.8149 4.0039 3.02846 3.65652 3.37596C3.30883 3.7234 3.09527 4.07209 2.93515 4.48302C2.78015 4.88052 2.67471 5.3349 2.64477 5.99996C2.61496 6.66665 2.60715 6.87977 2.60715 8.57721C2.60715 10.2746 2.61465 10.487 2.6449 11.1536C2.67552 11.819 2.78083 12.2732 2.93527 12.6706C3.09502 13.0817 3.30858 13.4304 3.65608 13.7778C4.0034 14.1255 4.35208 14.3395 4.7629 14.4991C5.16058 14.6537 5.61483 14.759 6.28008 14.7895C6.94677 14.8198 7.15965 14.8273 8.85696 14.8273C10.5545 14.8273 10.7669 14.8198 11.4335 14.7895C12.0989 14.759 12.5536 14.6537 12.9513 14.4991C13.3622 14.3395 13.7104 14.1255 14.0576 13.7778C14.4053 13.4304 14.6188 13.0817 14.779 12.6708C14.9326 12.2732 15.0381 11.8189 15.0694 11.1538C15.0993 10.4871 15.1071 10.2746 15.1071 8.57721C15.1071 6.87977 15.0993 6.66677 15.0694 6.00009C15.0381 5.33471 14.9326 4.88059 14.779 4.48321C14.6188 4.07209 14.4053 3.7234 14.0576 3.37596C13.71 3.02834 13.3623 2.81477 12.9509 2.65534C12.5525 2.50071 12.098 2.39534 11.4326 2.3649C10.766 2.33459 10.5537 2.32715 8.85577 2.32715H8.85771ZM8.29702 3.45346C8.46346 3.45321 8.64915 3.45346 8.85771 3.45346C10.5265 3.45346 10.7243 3.45946 11.3833 3.4894C11.9926 3.51727 12.3234 3.61909 12.5437 3.70465C12.8354 3.8179 13.0433 3.95334 13.262 4.17215C13.4807 4.3909 13.6161 4.59921 13.7296 4.8909C13.8152 5.1109 13.9171 5.44165 13.9449 6.05102C13.9748 6.7099 13.9813 6.90777 13.9813 8.57577C13.9813 10.2438 13.9748 10.4417 13.9449 11.1005C13.917 11.7099 13.8152 12.0406 13.7296 12.2607C13.6164 12.5524 13.4807 12.7601 13.262 12.9787C13.0432 13.1975 12.8355 13.3328 12.5437 13.4461C12.3236 13.5321 11.9926 13.6336 11.3833 13.6615C10.7244 13.6915 10.5265 13.698 8.85771 13.698C7.18883 13.698 6.99102 13.6915 6.33221 13.6615C5.72283 13.6334 5.39208 13.5316 5.17158 13.446C4.87996 13.3327 4.67158 13.1973 4.45283 12.9786C4.23408 12.7598 4.09871 12.552 3.98515 12.2602C3.89958 12.0401 3.79765 11.7094 3.7699 11.1C3.73996 10.4411 3.73396 10.2433 3.73396 8.57421C3.73396 6.90521 3.73996 6.70834 3.7699 6.04946C3.79777 5.44009 3.89958 5.10934 3.98515 4.88902C4.09846 4.59734 4.23408 4.38902 4.4529 4.17027C4.67165 3.95152 4.87996 3.81609 5.17165 3.70259C5.39196 3.61665 5.72283 3.51509 6.33221 3.48709C6.90877 3.46102 7.13221 3.45321 8.29702 3.4519V3.45346ZM12.194 4.49121C11.7799 4.49121 11.444 4.82684 11.444 5.24096C11.444 5.65502 11.7799 5.99096 12.194 5.99096C12.608 5.99096 12.944 5.65502 12.944 5.24096C12.944 4.8269 12.608 4.49096 12.194 4.49096V4.49121ZM8.85771 5.36752C7.08521 5.36752 5.64808 6.80465 5.64808 8.57721C5.64808 10.3498 7.08521 11.7862 8.85771 11.7862C10.6303 11.7862 12.0669 10.3498 12.0669 8.57721C12.0669 6.80471 10.6301 5.36752 8.85758 5.36752H8.85771ZM8.85771 6.49384C10.0083 6.49384 10.9411 7.42652 10.9411 8.57721C10.9411 9.72777 10.0083 10.6606 8.85771 10.6606C7.70708 10.6606 6.7744 9.72777 6.7744 8.57721C6.7744 7.42652 7.70708 6.49384 8.85771 6.49384Z" fill="white"/>
</g>
<defs>
<radialGradient id="paint0_radial_1000_13015" cx="0" cy="0" r="1" gradientUnits="userSpaceOnUse" gradientTransform="translate(5.10715 17.8095) rotate(-90) scale(15.8572 14.7484)">
<stop stop-color="#FFDD55"/>
<stop offset="0.1" stop-color="#FFDD55"/>
<stop offset="0.5" stop-color="#FF543E"/>
<stop offset="1" stop-color="#C837AB"/>
</radialGradient>
<radialGradient id="paint1_radial_1000_13015" cx="0" cy="0" r="1" gradientUnits="userSpaceOnUse" gradientTransform="translate(-1.82292 1.72971) rotate(78.681) scale(7.08825 29.218)">
<stop stop-color="#3771C8"/>
<stop offset="0.128" stop-color="#3771C8"/>
<stop offset="1" stop-color="#6600FF" stop-opacity="0"/>
</radialGradient>
<clipPath id="clip0_1000_13015">
<rect width="16" height="16" fill="white" transform="translate(0.857147 0.577148)"/>
</clipPath>
</defs>
</svg>
