<svg width="17" height="17" viewBox="0 0 17 17" fill="none" xmlns="http://www.w3.org/2000/svg">
<g clip-path="url(#clip0_1000_13020)">
<path d="M15.3571 0.952206H2.35715C2.06219 0.949204 1.77808 1.06334 1.56717 1.26956C1.35626 1.47578 1.23577 1.75725 1.23215 2.05221V15.1047C1.23643 15.3992 1.3572 15.6801 1.56804 15.8857C1.77888 16.0914 2.06261 16.2052 2.35715 16.2022H15.3571C15.6521 16.2045 15.936 16.09 16.1468 15.8837C16.3576 15.6773 16.4782 15.3959 16.4821 15.101V2.04846C16.4769 1.75437 16.3558 1.47424 16.1451 1.26896C15.9344 1.06369 15.6513 0.949853 15.3571 0.952206Z" fill="#0076B2"/>
<path d="M3.48966 6.66797H5.75341V13.9517H3.48966V6.66797ZM4.62216 3.04297C4.8818 3.04297 5.13561 3.11998 5.35148 3.26425C5.56734 3.40853 5.73557 3.61358 5.83487 3.85349C5.93418 4.09339 5.9601 4.35735 5.90935 4.61198C5.85861 4.86662 5.73348 5.10048 5.5498 5.28399C5.36612 5.4675 5.13213 5.5924 4.87745 5.6429C4.62277 5.6934 4.35883 5.66723 4.11902 5.5677C3.87922 5.46817 3.67432 5.29975 3.53025 5.08375C3.38618 4.86774 3.30942 4.61386 3.30966 4.35422C3.30999 4.00634 3.44842 3.67282 3.69453 3.42695C3.94063 3.18108 4.27428 3.04297 4.62216 3.04297ZM7.17341 6.66797H9.34341V7.66797H9.37341C9.67591 7.09547 10.4134 6.49172 11.5147 6.49172C13.8072 6.48672 14.2322 7.99547 14.2322 9.95172V13.9517H11.9684V10.408C11.9684 9.56422 11.9534 8.47797 10.7922 8.47797C9.63091 8.47797 9.43341 9.39797 9.43341 10.353V13.9517H7.17341V6.66797Z" fill="white"/>
</g>
<defs>
<clipPath id="clip0_1000_13020">
<rect width="16" height="16" fill="white" transform="translate(0.857147 0.577148)"/>
</clipPath>
</defs>
</svg>
