<svg width="15" height="17" viewBox="0 0 15 17" fill="none" xmlns="http://www.w3.org/2000/svg">
<g clip-path="url(#clip0_1000_13026)">
<path d="M11.3245 6.33858C12.355 7.07485 13.6174 7.50807 14.9809 7.50807V4.88572C14.7228 4.88578 14.4655 4.85885 14.213 4.80539V6.86956C12.8497 6.86956 11.5874 6.4364 10.5566 5.70018V11.0517C10.5566 13.7288 8.38527 15.8989 5.70698 15.8989C4.70764 15.8989 3.77876 15.5969 3.00717 15.079C3.88783 15.979 5.11597 16.5373 6.47465 16.5373C9.15316 16.5373 11.3246 14.3673 11.3246 11.69V6.33858H11.3245ZM12.2718 3.69295C11.7451 3.11789 11.3993 2.37472 11.3245 1.55309V1.21582H10.5968C10.78 2.26007 11.4048 3.15221 12.2718 3.69295ZM4.70119 13.0247C4.40695 12.6391 4.24789 12.1674 4.24861 11.6824C4.24861 10.458 5.24176 9.4652 6.46709 9.4652C6.6954 9.46509 6.92238 9.50013 7.14003 9.56909V6.8881C6.88568 6.85328 6.62902 6.83844 6.37247 6.8439V8.93063C6.15472 8.86162 5.92763 8.82659 5.6992 8.8268C4.47393 8.8268 3.48083 9.81946 3.48083 11.044C3.48083 11.9099 3.97721 12.6595 4.70119 13.0247Z" fill="#FF004F"/>
<path d="M10.5566 5.70012C11.5874 6.43634 12.8496 6.8695 14.213 6.8695V4.80534C13.4519 4.6433 12.7782 4.24583 12.2717 3.69295C11.4047 3.15215 10.7799 2.26001 10.5968 1.21582H8.68544V11.6899C8.68108 12.911 7.68963 13.8997 6.46696 13.8997C5.74651 13.8997 5.1064 13.5565 4.70105 13.0246C3.97719 12.6595 3.48075 11.9098 3.48075 11.0441C3.48075 9.81963 4.47385 8.82685 5.69912 8.82685C5.93388 8.82685 6.16014 8.86338 6.37239 8.93069V6.84396C3.74111 6.8983 1.62497 9.04716 1.62497 11.69C1.62497 13.0093 2.15192 14.2052 3.0072 15.0791C3.77879 15.5969 4.70762 15.899 5.70701 15.899C8.38536 15.899 10.5567 13.7288 10.5567 11.0517L10.5566 5.70012Z" fill="black"/>
<path d="M14.213 4.80501V4.247C13.5267 4.24804 12.854 4.05594 12.2717 3.69268C12.7871 4.25666 13.4658 4.64558 14.213 4.80512M10.5967 1.21549C10.5793 1.11572 10.5659 1.01528 10.5566 0.914417V0.577148H7.91745V11.0514C7.91326 12.2723 6.92181 13.261 5.69908 13.261C5.35244 13.2615 5.01055 13.1805 4.70101 13.0245C5.10636 13.5562 5.74647 13.8994 6.46691 13.8994C7.68953 13.8994 8.68109 12.9108 8.6854 11.6897V1.21555L10.5967 1.21549ZM6.37251 6.84363V6.24948C6.15198 6.21934 5.92966 6.20426 5.70708 6.20435C3.02846 6.20435 0.857147 8.3745 0.857147 11.0514C0.857147 12.7296 1.7105 14.2087 3.00727 15.0787C2.15199 14.2049 1.62504 13.0089 1.62504 11.6896C1.62504 9.04689 3.74112 6.89798 6.37251 6.84363Z" fill="#00F2EA"/>
</g>
<defs>
<clipPath id="clip0_1000_13026">
<rect width="14.1241" height="16" fill="white" transform="translate(0.857147 0.577148)"/>
</clipPath>
</defs>
</svg>
