<svg width="23" height="17" viewBox="0 0 23 17" fill="none" xmlns="http://www.w3.org/2000/svg">
<path d="M9.14286 12.0057L15.0743 8.57715L9.14286 5.14858V12.0057ZM22.3543 3.05715C22.5029 3.59429 22.6057 4.31429 22.6743 5.22858C22.7543 6.14286 22.7886 6.93143 22.7886 7.61715L22.8571 8.57715C22.8571 11.08 22.6743 12.92 22.3543 14.0971C22.0686 15.1257 21.4057 15.7886 20.3771 16.0743C19.84 16.2229 18.8571 16.3257 17.3486 16.3943C15.8629 16.4743 14.5029 16.5086 13.2457 16.5086L11.4286 16.5771C6.64 16.5771 3.65714 16.3943 2.48 16.0743C1.45143 15.7886 0.788572 15.1257 0.502857 14.0971C0.354286 13.56 0.251429 12.84 0.182857 11.9257C0.102857 11.0114 0.0685714 10.2229 0.0685714 9.53715L0 8.57715C0 6.07429 0.182857 4.23429 0.502857 3.05715C0.788572 2.02858 1.45143 1.36572 2.48 1.08001C3.01714 0.931434 4 0.828577 5.50857 0.760005C6.99429 0.680005 8.35429 0.64572 9.61143 0.64572L11.4286 0.577148C16.2171 0.577148 19.2 0.760006 20.3771 1.08001C21.4057 1.36572 22.0686 2.02858 22.3543 3.05715Z" fill="#FF2D2D"/>
</svg>
